<?xml version="1.0" encoding="utf-8"?>
<!-- Generator: Adobe Illustrator 16.0.0, SVG Export Plug-In . SVG Version: 6.00 Build 0)  -->
<!DOCTYPE svg PUBLIC "-//W3C//DTD SVG 1.1//EN" "http://www.w3.org/Graphics/SVG/1.1/DTD/svg11.dtd">
<svg version="1.1" id="レイヤー_1" xmlns="http://www.w3.org/2000/svg" xmlns:xlink="http://www.w3.org/1999/xlink" x="0px"
	 y="0px" width="270px" height="32px" viewBox="0 0 270 32" enable-background="new 0 0 270 32" xml:space="preserve">
<path fill="#ffffff" d="M16.572,1.456c-0.814-0.136-3.17-0.815-5.391-0.815c-3.172,0-5.301,0.951-6.706,2.219
	c-1.54,1.36-2.491,3.399-2.491,5.528c0,3.851,2.717,6.479,6.569,8.971c4.757,3.035,5.663,5.074,5.663,6.978
	c0,3.263-2.355,5.481-5.482,5.481c-1.722,0-4.711-1.133-5.89-3.625c-0.634-1.404-1.312-2.582-1.676-2.582
	c-0.181,0-0.634,0.681-0.634,0.861c0,0.725,0.453,2.719,0.679,4.258c0,0.183,0.589,1.179,1.042,1.451
	c1.404,0.678,4.484,1.178,5.936,1.178c2.039,0,4.711-0.68,6.161-1.631c2.447-1.586,3.716-4.123,3.716-6.391
	c0-4.078-2.765-6.438-6.252-8.79c-3.988-2.673-6.299-4.078-6.299-7.294c0-3.036,2.176-5.301,5.211-5.301
	c1.313,0,2.401,0.407,3.217,1.042c0.453,0.271,1.676,1.631,2.22,3.262c0.182,0.634,0.725,0.951,1.088,0.951
	c0.317,0,0.317-0.453,0.317-1.223c0-0.181-0.362-2.809-0.453-3.67C17.117,2.226,16.845,1.546,16.572,1.456"/>
</svg>
